<?xml version="1.0" encoding="UTF-8"?> <svg xmlns="http://www.w3.org/2000/svg" width="40" height="32"><path d="M8.696 15.928c2.125.193 3.864 1.013 5.217 2.461 1.353 1.448 2.029 3.282 2.029 5.502 0 2.414-.725 4.368-2.174 5.865C12.318 31.252 10.483 32 8.261 32c-2.512 0-4.517-.917-6.015-2.751C.75 27.415 0 24.567 0 20.706 0 13.273 2.464 6.854 7.391 1.448 8.357.483 9.47 0 10.725 0c1.062 0 1.98.362 2.753 1.086.773.724 1.16 1.569 1.16 2.534 0 1.062-.387 1.979-1.16 2.751-2.512 2.606-4.106 5.792-4.782 9.557zm24.058 0c2.125.193 3.864 1.013 5.217 2.461C39.324 19.837 40 21.671 40 23.891c0 2.414-.725 4.368-2.174 5.865C36.376 31.252 34.541 32 32.32 32c-2.512 0-4.517-.917-6.015-2.751-1.497-1.834-2.246-4.682-2.246-8.543 0-7.433 2.464-13.852 7.391-19.258C32.415.483 33.527 0 34.783 0c1.062 0 1.98.362 2.753 1.086.773.724 1.16 1.569 1.16 2.534 0 1.062-.387 1.979-1.16 2.751-2.512 2.606-4.106 5.792-4.782 9.557z" fill="#F98386" fill-rule="nonzero"></path></svg> 