<svg width="119" height="28" xmlns="http://www.w3.org/2000/svg">
  <g fill-rule="nonzero" fill="none">
    <path d="M74.63 12.102c1.826.606 1.826 3.192 0 3.798a16.908 16.908 0 0 0-10.732 10.73c-.606 1.826-3.19 1.826-3.796 0A16.91 16.91 0 0 0 49.37 15.9c-1.826-.606-1.826-3.192 0-3.798A16.912 16.912 0 0 0 60.102 1.37c.606-1.826 3.19-1.826 3.796 0A16.91 16.91 0 0 0 74.63 12.102zM62 6.776A20.92 20.92 0 0 1 54.776 14 20.92 20.92 0 0 1 62 21.224 20.916 20.916 0 0 1 69.224 14 20.918 20.918 0 0 1 62 6.776z" fill="#303030"/>
    <path d="M10 4v20c0 .996.896 2 2 2s2-1.004 2-2V4c0-.996-.896-2-2-2s-2 1.004-2 2z" fill="#F98386"/>
    <path d="M22 12H2c-1.024 0-2 .896-2 2s.976 2 2 2h20c1.024 0 2-.896 2-2s-.976-2-2-2z" fill="#F98386"/>
    <path d="M115.556 5.514l-14.14 14.142c-.706.704-.782 2.048 0 2.83.78.78 2.122.704 2.826 0l14.142-14.142c.704-.704.78-2.048 0-2.83-.78-.78-2.124-.704-2.828 0z" fill="#7EA1B8"/>
    <path d="M118.384 19.656l-14.14-14.14c-.726-.726-2.048-.782-2.83 0-.78.78-.724 2.104 0 2.828l14.142 14.14c.724.726 2.048.782 2.828 0 .78-.78.724-2.104 0-2.828z" fill="#7EA1B8"/>
  </g>
</svg>