<svg width="75" height="65" xmlns="http://www.w3.org/2000/svg">
  <g fill-rule="nonzero" fill="none">
    <path d="M28.98 46.982A27.22 27.22 0 0 0 18 57.962a27.22 27.22 0 0 0-10.98-10.98A27.224 27.224 0 0 0 18 36.002a27.22 27.22 0 0 0 10.98 10.98zM19.9 31.61a1.99 1.99 0 0 0-.496-2.054l.02.022a1.992 1.992 0 0 0-1.436-.596h.024a1.998 1.998 0 0 0-1.438.596l.022-.022a1.992 1.992 0 0 0-.494 2.054c.506 1.53 1.144 3 1.898 4.392a27.181 27.181 0 0 0 1.9-4.392zm-.474-2.032l-.022-.022a2.006 2.006 0 0 0-1.392-.574h-.024c-.52.003-1.02.21-1.392.574l-.02.022a1.99 1.99 0 0 0-.48.796A23.216 23.216 0 0 1 1.37 45.084c-1.826.606-1.826 3.192 0 3.796a23.214 23.214 0 0 1 14.732 14.73c.606 1.828 3.19 1.828 3.796 0A23.212 23.212 0 0 1 34.63 48.88c1.826-.604 1.826-3.19 0-3.796a23.214 23.214 0 0 1-14.724-14.71 2.01 2.01 0 0 0-.48-.796z" fill="#303030"/>
    <path d="M68.59 45.31A14.614 14.614 0 0 0 65 48.9a14.614 14.614 0 0 0-3.59-3.59A14.616 14.616 0 0 0 65 41.72a14.614 14.614 0 0 0 3.59 3.59zm-1.692-7.372a1.99 1.99 0 0 0-.494-2.054l.02.02a1.992 1.992 0 0 0-1.436-.596h.024a1.998 1.998 0 0 0-1.438.598l.022-.022a1.992 1.992 0 0 0-.494 2.054A14.6 14.6 0 0 0 65 41.718a14.6 14.6 0 0 0 1.9-3.78h-.002zm-.472-2.032l-.022-.022a2.006 2.006 0 0 0-1.392-.576h-.024c-.521.004-1.02.21-1.392.576l-.02.02c-.222.226-.386.5-.48.796a10.608 10.608 0 0 1-6.726 6.712c-1.826.606-1.826 3.19 0 3.796a10.606 10.606 0 0 1 6.732 6.73c.606 1.828 3.19 1.828 3.796 0a10.606 10.606 0 0 1 6.732-6.73c1.826-.606 1.826-3.19 0-3.796a10.606 10.606 0 0 1-6.724-6.712 2.01 2.01 0 0 0-.48-.794z" fill="#7EA1B8"/>
    <path d="M48 2v20c0 .996.896 2 2 2s2-1.004 2-2V2c0-.996-.896-2-2-2s-2 1.004-2 2z" fill="#F98386"/>
    <path d="M60 10H40c-1.024 0-2 .896-2 2s.976 2 2 2h20c1.024 0 2-.896 2-2s-.976-2-2-2z" fill="#F98386"/>
  </g>
</svg>