<svg xmlns="http://www.w3.org/2000/svg" width="615" height="14">
  <g fill="none" fill-rule="nonzero">
    <path fill="#303030" d="M317.315 6.051c.913.303.913 1.596 0 1.899a8.454 8.454 0 0 0-5.366 5.365c-.303.913-1.595.913-1.898 0a8.455 8.455 0 0 0-5.366-5.365c-.913-.303-.913-1.596 0-1.899a8.456 8.456 0 0 0 5.366-5.366c.303-.913 1.595-.913 1.898 0a8.455 8.455 0 0 0 5.366 5.366zM311 3.388A10.46 10.46 0 0 1 307.388 7 10.46 10.46 0 0 1 311 10.612 10.458 10.458 0 0 1 314.612 7 10.459 10.459 0 0 1 311 3.388z"/>
    <path fill="#F98386" d="M285 2v10c0 .498.448 1 1 1s1-.502 1-1V2c0-.498-.448-1-1-1s-1 .502-1 1z"/>
    <path fill="#F98386" d="M291 6h-10c-.512 0-1 .448-1 1s.488 1 1 1h10c.512 0 1-.448 1-1s-.488-1-1-1z"/>
    <path fill="#7EA1B8" d="M337.778 2.757l-7.07 7.071c-.353.352-.391 1.024 0 1.415.39.39 1.061.352 1.413 0l7.071-7.071c.352-.352.39-1.024 0-1.415-.39-.39-1.062-.352-1.414 0z"/>
    <path fill="#7EA1B8" d="M339.192 9.828l-7.07-7.07c-.363-.363-1.024-.391-1.415 0-.39.39-.362 1.052 0 1.414l7.071 7.07c.362.363 1.024.391 1.414 0 .39-.39.362-1.052 0-1.414z"/>
    <path fill="#9E8B7E" d="M2.34 9.108c-.444 0-.81-.147-1.098-.441C.954 8.373.81 8.004.81 7.56c0-.444.144-.813.432-1.107.288-.294.654-.441 1.098-.441.444 0 .81.147 1.098.441.288.294.432.663.432 1.107 0 .444-.144.813-.432 1.107-.288.294-.654.441-1.098.441zm9.702 0c-.444 0-.81-.147-1.098-.441-.288-.294-.432-.663-.432-1.107 0-.444.144-.813.432-1.107.288-.294.654-.441 1.098-.441.444 0 .81.147 1.098.441.288.294.432.663.432 1.107 0 .444-.144.813-.432 1.107-.288.294-.654.441-1.098.441zm9.702 0c-.444 0-.81-.147-1.098-.441-.288-.294-.432-.663-.432-1.107 0-.444.144-.813.432-1.107.288-.294.654-.441 1.098-.441.444 0 .81.147 1.098.441.288.294.432.663.432 1.107 0 .444-.144.813-.432 1.107-.288.294-.654.441-1.098.441zm9.702 0c-.444 0-.81-.147-1.098-.441-.288-.294-.432-.663-.432-1.107 0-.444.144-.813.432-1.107.288-.294.654-.441 1.098-.441.444 0 .81.147 1.098.441.288.294.432.663.432 1.107 0 .444-.144.813-.432 1.107-.288.294-.654.441-1.098.441zm9.702 0c-.444 0-.81-.147-1.098-.441-.288-.294-.432-.663-.432-1.107 0-.444.144-.813.432-1.107.288-.294.654-.441 1.098-.441.444 0 .81.147 1.098.441.288.294.432.663.432 1.107 0 .444-.144.813-.432 1.107-.288.294-.654.441-1.098.441zm9.702 0c-.444 0-.81-.147-1.098-.441-.288-.294-.432-.663-.432-1.107 0-.444.144-.813.432-1.107.288-.294.654-.441 1.098-.441.444 0 .81.147 1.098.441.288.294.432.663.432 1.107 0 .444-.144.813-.432 1.107-.288.294-.654.441-1.098.441zm9.702 0c-.444 0-.81-.147-1.098-.441-.288-.294-.432-.663-.432-1.107 0-.444.144-.813.432-1.107.288-.294.654-.441 1.098-.441.444 0 .81.147 1.098.441.288.294.432.663.432 1.107 0 .444-.144.813-.432 1.107-.288.294-.654.441-1.098.441zm9.702 0c-.444 0-.81-.147-1.098-.441-.288-.294-.432-.663-.432-1.107 0-.444.144-.813.432-1.107.288-.294.654-.441 1.098-.441.444 0 .81.147 1.098.441.288.294.432.663.432 1.107 0 .444-.144.813-.432 1.107-.288.294-.654.441-1.098.441zm9.702 0c-.444 0-.81-.147-1.098-.441-.288-.294-.432-.663-.432-1.107 0-.444.144-.813.432-1.107.288-.294.654-.441 1.098-.441.444 0 .81.147 1.098.441.288.294.432.663.432 1.107 0 .444-.144.813-.432 1.107-.288.294-.654.441-1.098.441zm9.702 0c-.444 0-.81-.147-1.098-.441-.288-.294-.432-.663-.432-1.107 0-.444.144-.813.432-1.107.288-.294.654-.441 1.098-.441.444 0 .81.147 1.098.441.288.294.432.663.432 1.107 0 .444-.144.813-.432 1.107-.288.294-.654.441-1.098.441zm9.702 0c-.444 0-.81-.147-1.098-.441-.288-.294-.432-.663-.432-1.107 0-.444.144-.813.432-1.107.288-.294.654-.441 1.098-.441.444 0 .81.147 1.098.441.288.294.432.663.432 1.107 0 .444-.144.813-.432 1.107-.288.294-.654.441-1.098.441zm9.702 0c-.444 0-.81-.147-1.098-.441-.288-.294-.432-.663-.432-1.107 0-.444.144-.813.432-1.107.288-.294.654-.441 1.098-.441.444 0 .81.147 1.098.441.288.294.432.663.432 1.107 0 .444-.144.813-.432 1.107-.288.294-.654.441-1.098.441zm9.702 0c-.444 0-.81-.147-1.098-.441-.288-.294-.432-.663-.432-1.107 0-.444.144-.813.432-1.107.288-.294.654-.441 1.098-.441.444 0 .81.147 1.098.441.288.294.432.663.432 1.107 0 .444-.144.813-.432 1.107-.288.294-.654.441-1.098.441zm9.702 0c-.444 0-.81-.147-1.098-.441-.288-.294-.432-.663-.432-1.107 0-.444.144-.813.432-1.107.288-.294.654-.441 1.098-.441.444 0 .81.147 1.098.441.288.294.432.663.432 1.107 0 .444-.144.813-.432 1.107-.288.294-.654.441-1.098.441zm9.702 0c-.444 0-.81-.147-1.098-.441-.288-.294-.432-.663-.432-1.107 0-.444.144-.813.432-1.107.288-.294.654-.441 1.098-.441.444 0 .81.147 1.098.441.288.294.432.663.432 1.107 0 .444-.144.813-.432 1.107-.288.294-.654.441-1.098.441zm9.702 0c-.444 0-.81-.147-1.098-.441-.288-.294-.432-.663-.432-1.107 0-.444.144-.813.432-1.107.288-.294.654-.441 1.098-.441.444 0 .81.147 1.098.441.288.294.432.663.432 1.107 0 .444-.144.813-.432 1.107-.288.294-.654.441-1.098.441zm9.702 0c-.444 0-.81-.147-1.098-.441-.288-.294-.432-.663-.432-1.107 0-.444.144-.813.432-1.107.288-.294.654-.441 1.098-.441.444 0 .81.147 1.098.441.288.294.432.663.432 1.107 0 .444-.144.813-.432 1.107-.288.294-.654.441-1.098.441zm9.702 0c-.444 0-.81-.147-1.098-.441-.288-.294-.432-.663-.432-1.107 0-.444.144-.813.432-1.107.288-.294.654-.441 1.098-.441.444 0 .81.147 1.098.441.288.294.432.663.432 1.107 0 .444-.144.813-.432 1.107-.288.294-.654.441-1.098.441zm9.702 0c-.444 0-.81-.147-1.098-.441-.288-.294-.432-.663-.432-1.107 0-.444.144-.813.432-1.107.288-.294.654-.441 1.098-.441.444 0 .81.147 1.098.441.288.294.432.663.432 1.107 0 .444-.144.813-.432 1.107-.288.294-.654.441-1.098.441zm9.702 0c-.444 0-.81-.147-1.098-.441-.288-.294-.432-.663-.432-1.107 0-.444.144-.813.432-1.107.288-.294.654-.441 1.098-.441.444 0 .81.147 1.098.441.288.294.432.663.432 1.107 0 .444-.144.813-.432 1.107-.288.294-.654.441-1.098.441zm9.702 0c-.444 0-.81-.147-1.098-.441-.288-.294-.432-.663-.432-1.107 0-.444.144-.813.432-1.107.288-.294.654-.441 1.098-.441.444 0 .81.147 1.098.441.288.294.432.663.432 1.107 0 .444-.144.813-.432 1.107-.288.294-.654.441-1.098.441zm9.702 0c-.444 0-.81-.147-1.098-.441-.288-.294-.432-.663-.432-1.107 0-.444.144-.813.432-1.107.288-.294.654-.441 1.098-.441.444 0 .81.147 1.098.441.288.294.432.663.432 1.107 0 .444-.144.813-.432 1.107-.288.294-.654.441-1.098.441zm9.702 0c-.444 0-.81-.147-1.098-.441-.288-.294-.432-.663-.432-1.107 0-.444.144-.813.432-1.107.288-.294.654-.441 1.098-.441.444 0 .81.147 1.098.441.288.294.432.663.432 1.107 0 .444-.144.813-.432 1.107-.288.294-.654.441-1.098.441zm9.702 0c-.444 0-.81-.147-1.098-.441-.288-.294-.432-.663-.432-1.107 0-.444.144-.813.432-1.107.288-.294.654-.441 1.098-.441.444 0 .81.147 1.098.441.288.294.432.663.432 1.107 0 .444-.144.813-.432 1.107-.288.294-.654.441-1.098.441zm9.702 0c-.444 0-.81-.147-1.098-.441-.288-.294-.432-.663-.432-1.107 0-.444.144-.813.432-1.107.288-.294.654-.441 1.098-.441.444 0 .81.147 1.098.441.288.294.432.663.432 1.107 0 .444-.144.813-.432 1.107-.288.294-.654.441-1.098.441zm9.702 0c-.444 0-.81-.147-1.098-.441-.288-.294-.432-.663-.432-1.107 0-.444.144-.813.432-1.107.288-.294.654-.441 1.098-.441.444 0 .81.147 1.098.441.288.294.432.663.432 1.107 0 .444-.144.813-.432 1.107-.288.294-.654.441-1.098.441zm9.702 0c-.444 0-.81-.147-1.098-.441-.288-.294-.432-.663-.432-1.107 0-.444.144-.813.432-1.107.288-.294.654-.441 1.098-.441.444 0 .81.147 1.098.441.288.294.432.663.432 1.107 0 .444-.144.813-.432 1.107-.288.294-.654.441-1.098.441zM360.34 9.108c-.444 0-.81-.147-1.098-.441-.288-.294-.432-.663-.432-1.107 0-.444.144-.813.432-1.107.288-.294.654-.441 1.098-.441.444 0 .81.147 1.098.441.288.294.432.663.432 1.107 0 .444-.144.813-.432 1.107-.288.294-.654.441-1.098.441zm9.702 0c-.444 0-.81-.147-1.098-.441-.288-.294-.432-.663-.432-1.107 0-.444.144-.813.432-1.107.288-.294.654-.441 1.098-.441.444 0 .81.147 1.098.441.288.294.432.663.432 1.107 0 .444-.144.813-.432 1.107-.288.294-.654.441-1.098.441zm9.702 0c-.444 0-.81-.147-1.098-.441-.288-.294-.432-.663-.432-1.107 0-.444.144-.813.432-1.107.288-.294.654-.441 1.098-.441.444 0 .81.147 1.098.441.288.294.432.663.432 1.107 0 .444-.144.813-.432 1.107-.288.294-.654.441-1.098.441zm9.702 0c-.444 0-.81-.147-1.098-.441-.288-.294-.432-.663-.432-1.107 0-.444.144-.813.432-1.107.288-.294.654-.441 1.098-.441.444 0 .81.147 1.098.441.288.294.432.663.432 1.107 0 .444-.144.813-.432 1.107-.288.294-.654.441-1.098.441zm9.702 0c-.444 0-.81-.147-1.098-.441-.288-.294-.432-.663-.432-1.107 0-.444.144-.813.432-1.107.288-.294.654-.441 1.098-.441.444 0 .81.147 1.098.441.288.294.432.663.432 1.107 0 .444-.144.813-.432 1.107-.288.294-.654.441-1.098.441zm9.702 0c-.444 0-.81-.147-1.098-.441-.288-.294-.432-.663-.432-1.107 0-.444.144-.813.432-1.107.288-.294.654-.441 1.098-.441.444 0 .81.147 1.098.441.288.294.432.663.432 1.107 0 .444-.144.813-.432 1.107-.288.294-.654.441-1.098.441zm9.702 0c-.444 0-.81-.147-1.098-.441-.288-.294-.432-.663-.432-1.107 0-.444.144-.813.432-1.107.288-.294.654-.441 1.098-.441.444 0 .81.147 1.098.441.288.294.432.663.432 1.107 0 .444-.144.813-.432 1.107-.288.294-.654.441-1.098.441zm9.702 0c-.444 0-.81-.147-1.098-.441-.288-.294-.432-.663-.432-1.107 0-.444.144-.813.432-1.107.288-.294.654-.441 1.098-.441.444 0 .81.147 1.098.441.288.294.432.663.432 1.107 0 .444-.144.813-.432 1.107-.288.294-.654.441-1.098.441zm9.702 0c-.444 0-.81-.147-1.098-.441-.288-.294-.432-.663-.432-1.107 0-.444.144-.813.432-1.107.288-.294.654-.441 1.098-.441.444 0 .81.147 1.098.441.288.294.432.663.432 1.107 0 .444-.144.813-.432 1.107-.288.294-.654.441-1.098.441zm9.702 0c-.444 0-.81-.147-1.098-.441-.288-.294-.432-.663-.432-1.107 0-.444.144-.813.432-1.107.288-.294.654-.441 1.098-.441.444 0 .81.147 1.098.441.288.294.432.663.432 1.107 0 .444-.144.813-.432 1.107-.288.294-.654.441-1.098.441zm9.702 0c-.444 0-.81-.147-1.098-.441-.288-.294-.432-.663-.432-1.107 0-.444.144-.813.432-1.107.288-.294.654-.441 1.098-.441.444 0 .81.147 1.098.441.288.294.432.663.432 1.107 0 .444-.144.813-.432 1.107-.288.294-.654.441-1.098.441zm9.702 0c-.444 0-.81-.147-1.098-.441-.288-.294-.432-.663-.432-1.107 0-.444.144-.813.432-1.107.288-.294.654-.441 1.098-.441.444 0 .81.147 1.098.441.288.294.432.663.432 1.107 0 .444-.144.813-.432 1.107-.288.294-.654.441-1.098.441zm9.702 0c-.444 0-.81-.147-1.098-.441-.288-.294-.432-.663-.432-1.107 0-.444.144-.813.432-1.107.288-.294.654-.441 1.098-.441.444 0 .81.147 1.098.441.288.294.432.663.432 1.107 0 .444-.144.813-.432 1.107-.288.294-.654.441-1.098.441zm9.702 0c-.444 0-.81-.147-1.098-.441-.288-.294-.432-.663-.432-1.107 0-.444.144-.813.432-1.107.288-.294.654-.441 1.098-.441.444 0 .81.147 1.098.441.288.294.432.663.432 1.107 0 .444-.144.813-.432 1.107-.288.294-.654.441-1.098.441zm9.702 0c-.444 0-.81-.147-1.098-.441-.288-.294-.432-.663-.432-1.107 0-.444.144-.813.432-1.107.288-.294.654-.441 1.098-.441.444 0 .81.147 1.098.441.288.294.432.663.432 1.107 0 .444-.144.813-.432 1.107-.288.294-.654.441-1.098.441zm9.702 0c-.444 0-.81-.147-1.098-.441-.288-.294-.432-.663-.432-1.107 0-.444.144-.813.432-1.107.288-.294.654-.441 1.098-.441.444 0 .81.147 1.098.441.288.294.432.663.432 1.107 0 .444-.144.813-.432 1.107-.288.294-.654.441-1.098.441zm9.702 0c-.444 0-.81-.147-1.098-.441-.288-.294-.432-.663-.432-1.107 0-.444.144-.813.432-1.107.288-.294.654-.441 1.098-.441.444 0 .81.147 1.098.441.288.294.432.663.432 1.107 0 .444-.144.813-.432 1.107-.288.294-.654.441-1.098.441zm9.702 0c-.444 0-.81-.147-1.098-.441-.288-.294-.432-.663-.432-1.107 0-.444.144-.813.432-1.107.288-.294.654-.441 1.098-.441.444 0 .81.147 1.098.441.288.294.432.663.432 1.107 0 .444-.144.813-.432 1.107-.288.294-.654.441-1.098.441zm9.702 0c-.444 0-.81-.147-1.098-.441-.288-.294-.432-.663-.432-1.107 0-.444.144-.813.432-1.107.288-.294.654-.441 1.098-.441.444 0 .81.147 1.098.441.288.294.432.663.432 1.107 0 .444-.144.813-.432 1.107-.288.294-.654.441-1.098.441zm9.702 0c-.444 0-.81-.147-1.098-.441-.288-.294-.432-.663-.432-1.107 0-.444.144-.813.432-1.107.288-.294.654-.441 1.098-.441.444 0 .81.147 1.098.441.288.294.432.663.432 1.107 0 .444-.144.813-.432 1.107-.288.294-.654.441-1.098.441zm9.702 0c-.444 0-.81-.147-1.098-.441-.288-.294-.432-.663-.432-1.107 0-.444.144-.813.432-1.107.288-.294.654-.441 1.098-.441.444 0 .81.147 1.098.441.288.294.432.663.432 1.107 0 .444-.144.813-.432 1.107-.288.294-.654.441-1.098.441zm9.702 0c-.444 0-.81-.147-1.098-.441-.288-.294-.432-.663-.432-1.107 0-.444.144-.813.432-1.107.288-.294.654-.441 1.098-.441.444 0 .81.147 1.098.441.288.294.432.663.432 1.107 0 .444-.144.813-.432 1.107-.288.294-.654.441-1.098.441zm9.702 0c-.444 0-.81-.147-1.098-.441-.288-.294-.432-.663-.432-1.107 0-.444.144-.813.432-1.107.288-.294.654-.441 1.098-.441.444 0 .81.147 1.098.441.288.294.432.663.432 1.107 0 .444-.144.813-.432 1.107-.288.294-.654.441-1.098.441zm9.702 0c-.444 0-.81-.147-1.098-.441-.288-.294-.432-.663-.432-1.107 0-.444.144-.813.432-1.107.288-.294.654-.441 1.098-.441.444 0 .81.147 1.098.441.288.294.432.663.432 1.107 0 .444-.144.813-.432 1.107-.288.294-.654.441-1.098.441zm9.702 0c-.444 0-.81-.147-1.098-.441-.288-.294-.432-.663-.432-1.107 0-.444.144-.813.432-1.107.288-.294.654-.441 1.098-.441.444 0 .81.147 1.098.441.288.294.432.663.432 1.107 0 .444-.144.813-.432 1.107-.288.294-.654.441-1.098.441zm9.702 0c-.444 0-.81-.147-1.098-.441-.288-.294-.432-.663-.432-1.107 0-.444.144-.813.432-1.107.288-.294.654-.441 1.098-.441.444 0 .81.147 1.098.441.288.294.432.663.432 1.107 0 .444-.144.813-.432 1.107-.288.294-.654.441-1.098.441zm9.702 0c-.444 0-.81-.147-1.098-.441-.288-.294-.432-.663-.432-1.107 0-.444.144-.813.432-1.107.288-.294.654-.441 1.098-.441.444 0 .81.147 1.098.441.288.294.432.663.432 1.107 0 .444-.144.813-.432 1.107-.288.294-.654.441-1.098.441z"/>
  </g>
</svg>
