<svg width="163" height="36" xmlns="http://www.w3.org/2000/svg"><g fill="none" fill-rule="evenodd"><path d="M18 2a25.214 25.214 0 0 0 16 16 25.212 25.212 0 0 0-16 16A25.213 25.213 0 0 0 2 18 25.216 25.216 0 0 0 18 2" stroke="#F98386" stroke-width="3" stroke-linecap="round" stroke-linejoin="round"/><g transform="translate(55 16)" fill="#7EA1B8" fill-rule="nonzero"><circle cx="34" cy="2" r="2"/><circle cx="82" cy="2" r="2"/><circle cx="42" cy="2" r="2"/><circle cx="90" cy="2" r="2"/><circle cx="50" cy="2" r="2"/><circle cx="98" cy="2" r="2"/><circle cx="2" cy="2" r="2"/><circle cx="58" cy="2" r="2"/><circle cx="106" cy="2" r="2"/><circle cx="10" cy="2" r="2"/><circle cx="66" cy="2" r="2"/><circle cx="18" cy="2" r="2"/><circle cx="74" cy="2" r="2"/><circle cx="26" cy="2" r="2"/></g></g></svg>