<svg width="244" height="198" xmlns="http://www.w3.org/2000/svg"><g stroke-width="3" fill="none" fill-rule="evenodd" stroke-linecap="round"><path d="M242 187.5a13.397 13.397 0 0 0-8.5 8.5 13.397 13.397 0 0 0-8.5-8.5 13.398 13.398 0 0 0 8.5-8.5 13.398 13.398 0 0 0 8.5 8.5z" stroke="#EE383B" stroke-linejoin="round"/><g stroke="#7EA1B8"><path d="M27.6 181.234l-12.297 12.297M28.088 193.485L15.35 180.746"/></g><path d="M33 18c-7.326 2.507-13.072 8.44-15.5 16C15.072 26.44 9.325 20.507 2 18c7.325-2.506 13.072-8.439 15.5-16 2.428 7.561 8.174 13.494 15.5 16z" stroke="#9E8B7E" stroke-linejoin="round"/></g></svg>