<?xml version="1.0" encoding="UTF-8"?> <svg xmlns="http://www.w3.org/2000/svg" width="140" height="133"><path d="M8.127 97.131a30.753 30.753 0 0 1-8.004-9.187c-.347-.66.047-1.541 1.087-2.14 1.04-.597 2.238-.629 2.616-.094 3.435 4.798 10.415 9.8 19.38 12.837a66.27 66.27 0 0 0 14.953 3.036c2.754.265 5.52.391 8.288.377a77.358 77.358 0 0 0 4.254-.141l2.143-.157 1.056-.11.74-.126a7.382 7.382 0 0 0 5.704-6.293 6.408 6.408 0 0 0 0-1.573 5.026 5.026 0 0 0-.094-.755l-.08-.378v-.188c.017.126-.204-1.039-.11-.582v-.268a15.093 15.093 0 0 1 .142-3.366 27.226 27.226 0 0 1 1.371-5.475l.095-.267a29.381 29.381 0 0 1-4.885-2.014 20.706 20.706 0 0 1-8.887-8.29 18.233 18.233 0 0 1-1.292-2.879c-.157-.55-.378-1.29-.44-1.573-.064-.283-.19-.456-.19-.833a7.853 7.853 0 0 1-.126-1.306 7.86 7.86 0 0 1 2.513-5.975 7.886 7.886 0 0 1 6.153-2.064l1.26.142c.726.11 1.466.22 2.207.22 1.465.126 2.962.158 4.427.126a58.33 58.33 0 0 0 4.396-.252l1.198-.173.598-10.697v-.11a3.935 3.935 0 0 1 3.294-3.65A19.228 19.228 0 0 0 79 40.532c.48-.298.937-.63 1.37-.991.146-.115.283-.242.41-.378.102-.105.192-.22.268-.346a2.734 2.734 0 0 0 .425-1.762 3.032 3.032 0 0 0-.22-.88 2.03 2.03 0 0 0-.489-.661 10.05 10.05 0 0 0-1.197-.975c-.504-.347-1.166-.866-1.733-1.306a31.124 31.124 0 0 1-6.082-6.214 29.327 29.327 0 0 1-5.657-14.158 28.836 28.836 0 0 1 0-6.48c.19-1.81.363-3.477.363-5.05.015-.63.693-1.165 1.875-1.306 1.181-.142 2.253.362 2.332 1.132.189 1.684.299 3.508.299 5.428.007 1.814.202 3.622.583 5.395a24.807 24.807 0 0 0 5.373 11.012 25.496 25.496 0 0 0 5.136 4.61c.52.345.93.676 1.576 1.069.733.47 1.428.996 2.08 1.573a9.442 9.442 0 0 1 2.111 2.564 10.163 10.163 0 0 1-.141 9.753 9.438 9.438 0 0 1-.993 1.448 11.02 11.02 0 0 1-1.15 1.195 19.565 19.565 0 0 1-2.19 1.73 24.267 24.267 0 0 1-6.807 3.147l-.363 11.137a4.123 4.123 0 0 1-3.151 3.87c-1.71.385-3.441.673-5.184.865a61.744 61.744 0 0 1-5.12.362c-1.718.047-3.451.016-5.185-.079-.866-.063-1.749-.11-2.615-.22h-.095v.252c.184.544.416 1.07.694 1.573a12.22 12.22 0 0 0 5.278 4.798 21.306 21.306 0 0 0 3.797 1.573l.505.157.472.142a7.248 7.248 0 0 1 3.104 2.014 7.386 7.386 0 0 1 1.907 5.332 7.618 7.618 0 0 1-.22 1.432l-.206.676-.094.283-.41 1.133a19.201 19.201 0 0 0-1.04 3.886 8.042 8.042 0 0 0-.126 1.431l.158.802c.09.52.147 1.046.173 1.573a14.67 14.67 0 0 1-.158 3.257 15.57 15.57 0 0 1-12.431 12.915l-1.576.204-1.213.095-2.395.11H46.32a83.641 83.641 0 0 1-9.029-.802 74.254 74.254 0 0 1-10.746-2.297c.946 7.96-.693 21.536-3.592 26.365a6.313 6.313 0 0 1-2.017 0 7.558 7.558 0 0 1-2.284-.393c-2.096-5.648-.914-20.844 1.875-28.064a50.06 50.06 0 0 1-12.4-7.331zM94.023 67a9.392 9.392 0 0 1 3.304 4.972c1.677 5.472.163 11.447-3.897 15.386A9.045 9.045 0 0 1 88.208 90a6.7 6.7 0 0 1-1.127-1.564A11.565 11.565 0 0 1 86 86.466c.411-1.172 1.142-2.439 1.781-3.846a23.305 23.305 0 0 0 2.33-9.381c.09-1.548.045-3.002.228-4.222a9.525 9.525 0 0 1 1.66-1.063A8.03 8.03 0 0 1 94.022 67zm10.959 27.098a45.086 45.086 0 0 0 4.456-10.818c.952-3.8 1.4-7.705 1.337-11.618-.032-3.622-.51-6.774-.62-9.047a4.793 4.793 0 0 1 1.782-1.004 4.83 4.83 0 0 1 2.26-.611 23.521 23.521 0 0 1 4.202 9.815c1.902 9.815-.761 19.953-7.258 27.627a23.937 23.937 0 0 1-8.499 6.553c-.143.063-.764-.517-1.448-1.332A5.396 5.396 0 0 1 100 101.75c1.226-1.944 3.167-4.516 4.982-7.652zm25.443-37.51c-.03-.22.624-.688 1.747-1.095 1.122-.407 2.15-.625 2.276-.407a40.737 40.737 0 0 1 4.957 14.574 52.813 52.813 0 0 1-10.274 39.998 40.436 40.436 0 0 1-11.38 10.32c-.203.126-.78-.297-1.56-1.188-.779-.891-1.309-1.798-1.168-1.986a125.364 125.364 0 0 0 7.95-11.383 66.297 66.297 0 0 0 7.078-16.857 66.316 66.316 0 0 0 1.933-18.17 124.511 124.511 0 0 0-1.559-13.806z" fill="#7EA1B8" fill-rule="nonzero"></path></svg> 